<svg width="26" height="30" viewBox="0 0 26 30" fill="none" xmlns="http://www.w3.org/2000/svg">
<path d="M13 15.15C14.4141 15.15 15.7965 14.7307 16.9723 13.945C18.1481 13.1594 19.0646 12.0427 19.6057 10.7362C20.1469 9.4297 20.2885 7.99207 20.0126 6.60511C19.7367 5.21814 19.0558 3.94413 18.0558 2.94419C17.0559 1.94424 15.7819 1.26327 14.3949 0.987388C13.0079 0.711504 11.5703 0.853098 10.2638 1.39426C8.95732 1.93543 7.84064 2.85186 7.05499 4.02768C6.26934 5.20349 5.85 6.58587 5.85 8C5.85 9.8963 6.6033 11.7149 7.94419 13.0558C9.28507 14.3967 11.1037 15.15 13 15.15ZM13 3.15C13.9592 3.15 14.8969 3.43445 15.6945 3.96738C16.4921 4.5003 17.1137 5.25777 17.4808 6.14399C17.8479 7.03021 17.9439 8.00538 17.7568 8.94619C17.5697 9.887 17.1078 10.7512 16.4295 11.4295C15.7512 12.1078 14.887 12.5697 13.9462 12.7568C13.0054 12.944 12.0302 12.8479 11.144 12.4808C10.2578 12.1137 9.5003 11.4921 8.96737 10.6945C8.43445 9.89694 8.15 8.95924 8.15 8C8.15 6.7137 8.66098 5.48009 9.57053 4.57054C10.4801 3.66098 11.7137 3.15 13 3.15Z" fill="white" stroke="white" stroke-width="0.3"/>
<path d="M22.7707 26.85C22.4957 24.7515 21.4772 22.8188 19.8973 21.405C18.2756 19.9538 16.1762 19.1511 14 19.15L22.7707 26.85ZM22.7707 26.85H3.22931C3.50429 24.7515 4.52277 22.8188 6.10271 21.405C7.72437 19.9538 9.82385 19.1511 12 19.15C12 19.15 12 19.15 12.0001 19.15H13.9999L22.7707 26.85ZM14 16.85H12C9.04284 16.85 6.20679 18.0247 4.11576 20.1158C2.02473 22.2068 0.85 25.0428 0.85 28C0.85 28.305 0.971161 28.5975 1.18683 28.8132C1.40249 29.0288 1.695 29.15 2 29.15H24C24.305 29.15 24.5975 29.0288 24.8132 28.8132C25.0288 28.5975 25.15 28.305 25.15 28C25.15 25.0428 23.9753 22.2068 21.8842 20.1158C19.7932 18.0247 16.9572 16.85 14 16.85Z" fill="white" stroke="white" stroke-width="0.3"/>
</svg>
