<svg width="31" height="32" viewBox="0 0 31 32" fill="none" xmlns="http://www.w3.org/2000/svg">
<path d="M26.7249 20.9376H10.6992C10.4333 20.938 10.1751 20.848 9.96711 20.6823C9.75912 20.5166 9.61366 20.2851 9.55463 20.0258L6.85619 8.26958C6.81672 8.09785 6.81649 7.91943 6.85551 7.74759C6.89452 7.57576 6.97179 7.41494 7.08156 7.27709C7.19132 7.13925 7.33076 7.02793 7.48949 6.95142C7.64823 6.87492 7.82217 6.83519 7.99838 6.83521H29.4257C29.6021 6.83484 29.7763 6.87431 29.9354 6.95066C30.0944 7.02701 30.2341 7.13828 30.3442 7.27617C30.4542 7.41406 30.5317 7.57501 30.5708 7.74702C30.61 7.91903 30.6098 8.09766 30.5703 8.26958L27.8671 20.0258C27.8082 20.2847 27.6631 20.5159 27.4556 20.6816C27.2481 20.8472 26.9905 20.9374 26.7249 20.9376ZM11.632 18.5938H25.7921L27.9539 9.1813H9.46948L11.632 18.5938Z" fill="white"/>
<path d="M12.9922 31.4063C12.1041 31.4063 11.2358 31.1429 10.4974 30.6495C9.75888 30.1561 9.1833 29.4547 8.84342 28.6342C8.50353 27.8136 8.4146 26.9107 8.58788 26.0396C8.76115 25.1685 9.18884 24.3683 9.81686 23.7403C10.4449 23.1123 11.245 22.6846 12.1161 22.5113C12.9872 22.3381 13.8901 22.427 14.7107 22.7669C15.5313 23.1068 16.2326 23.6823 16.726 24.4208C17.2195 25.1593 17.4828 26.0275 17.4828 26.9157C17.4816 28.1063 17.0081 29.2478 16.1662 30.0897C15.3243 30.9315 14.1828 31.4051 12.9922 31.4063ZM12.9922 24.7696C12.5676 24.7696 12.1525 24.8955 11.7994 25.1314C11.4463 25.3674 11.1712 25.7027 11.0087 26.0951C10.8462 26.4874 10.8037 26.9191 10.8866 27.3356C10.9695 27.7521 11.1741 28.1346 11.4744 28.4348C11.7747 28.735 12.1574 28.9394 12.5739 29.0222C12.9904 29.1049 13.4221 29.0623 13.8143 28.8997C14.2066 28.7371 14.5418 28.4618 14.7777 28.1086C15.0135 27.7555 15.1392 27.3403 15.1391 26.9157C15.1385 26.3466 14.9121 25.8009 14.5096 25.3986C14.107 24.9962 13.5613 24.77 12.9922 24.7696Z" fill="white"/>
<path d="M24.4313 31.4063C23.5431 31.4063 22.6749 31.1429 21.9364 30.6495C21.198 30.1561 20.6224 29.4547 20.2825 28.6342C19.9426 27.8136 19.8537 26.9107 20.027 26.0396C20.2002 25.1685 20.6279 24.3683 21.256 23.7403C21.884 23.1123 22.6841 22.6846 23.5552 22.5113C24.4263 22.3381 25.3292 22.427 26.1498 22.7669C26.9703 23.1068 27.6717 23.6823 28.1651 24.4208C28.6586 25.1593 28.9219 26.0275 28.9219 26.9157C28.9207 28.1063 28.4472 29.2478 27.6053 30.0897C26.7634 30.9315 25.6219 31.4051 24.4313 31.4063ZM24.4313 24.7696C24.0067 24.7696 23.5915 24.8955 23.2385 25.1314C22.8854 25.3674 22.6102 25.7027 22.4478 26.0951C22.2853 26.4874 22.2428 26.9191 22.3257 27.3356C22.4086 27.7521 22.6132 28.1346 22.9135 28.4348C23.2138 28.735 23.5964 28.9394 24.0129 29.0222C24.4295 29.1049 24.8611 29.0623 25.2534 28.8997C25.6457 28.7371 25.9809 28.4618 26.2167 28.1086C26.4526 27.7555 26.5783 27.3403 26.5782 26.9157C26.5776 26.3466 26.3511 25.8009 25.9486 25.3986C25.5461 24.9962 25.0004 24.77 24.4313 24.7696Z" fill="white"/>
<path d="M7.99844 9.17891C7.75245 9.17888 7.51271 9.10146 7.31318 8.95759C7.11365 8.81373 6.96445 8.61073 6.88672 8.37734L4.87812 2.34375H1.17187C0.861074 2.34375 0.563003 2.22029 0.343234 2.00052C0.123465 1.78075 0 1.48268 0 1.17188C0 0.861075 0.123465 0.563003 0.343234 0.343234C0.563003 0.123465 0.861074 0 1.17187 0H5.72656C5.97255 2.27597e-05 6.21229 0.077451 6.41182 0.221314C6.61135 0.365178 6.76055 0.568181 6.83828 0.801562L9.11406 7.63672C9.17273 7.81286 9.18871 8.00042 9.16068 8.18394C9.13265 8.36747 9.06142 8.54171 8.95286 8.69231C8.8443 8.84291 8.7015 8.96556 8.53625 9.05016C8.37099 9.13476 8.188 9.17889 8.00234 9.17891H7.99844Z" fill="white"/>
</svg>
